<svg version="1.0" xmlns="http://www.w3.org/2000/svg"
 width="400.000000pt" height="400.000000pt" viewBox="0 0 400.000000 400.000000"
 preserveAspectRatio="xMidYMid meet">
<metadata>
Created by potrace and Antigravity multi-layer color tracer
</metadata>
<g transform="translate(0.000000,400.000000) scale(0.100000,-0.100000)" stroke="none">
  <path d="M1045 3464 c-150 -27 -271 -105 -294 -191 -16 -55 -15 -1649 0 -1709
7 -28 23 -54 41 -69 38 -32 99 -33 275 -4 100 16 158 20 263 17 154 -5 177
-12 440 -131 183 -82 217 -91 272 -76 24 6 112 42 197 81 84 38 194 83 243 99
81 27 103 31 209 30 71 0 173 -9 251 -22 169 -27 242 -23 274 14 13 15 28 45
34 66 7 27 9 312 8 868 l-3 830 -30 49 c-21 32 -48 60 -83 81 -289 172 -986
51 -1113 -194 l-28 -52 -21 44 c-94 194 -579 333 -935 269z m1023 -535 c13
-11 54 -83 92 -159 41 -81 78 -144 91 -150 11 -7 91 -22 177 -35 150 -22 158
-25 184 -54 55 -62 37 -101 -105 -236 -68 -65 -108 -110 -113 -129 -4 -18 3
-86 19 -179 23 -133 25 -153 12 -182 -13 -33 -58 -65 -91 -65 -9 0 -82 34
-162 75 -80 41 -155 75 -167 75 -12 0 -87 -34 -167 -75 -80 -41 -153 -75 -162
-75 -33 0 -78 32 -91 65 -13 29 -11 49 12 182 16 93 23 161 19 179 -5 19 -45
64 -113 129 -142 135 -160 174 -105 236 26 29 34 32 184 54 86 13 166 28 177
35 13 6 50 69 91 150 38 76 79 148 92 159 15 14 35 21 63 21 28 0 48 -7 63
-21z" fill="#FFEAB8" />
  <path d="M1942 2929 c-13 -11 -54 -83 -92 -159 -41 -81 -78 -144 -91 -150 -11
-7 -91 -22 -177 -35 -150 -22 -158 -25 -184 -54 -55 -62 -37 -101 105 -236 68
-65 108 -110 113 -129 4 -18 -3 -86 -19 -179 -23 -133 -25 -153 -12 -182 13
-33 58 -65 91 -65 9 0 82 34 162 75 80 41 155 75 167 75 12 0 87 -34 167 -75
80 -41 153 -75 162 -75 33 0 78 32 91 65 13 29 11 49 -12 182 -16 93 -23 161
-19 179 5 19 45 64 113 129 142 135 160 174 105 236 -26 29 -34 32 -184 54
-86 13 -166 28 -177 35 -13 6 -50 69 -91 150 -38 76 -79 148 -92 159 -15 14
-35 21 -63 21 -28 0 -48 -7 -63 -21z" fill="#FAA307" />
  <path d="M655 3994 c-11 -2 -44 -9 -73 -15 -222 -45 -436 -226 -525 -445 -54
-133 -52 -95 -52 -1149 l0 -980 23 -75 c54 -171 152 -309 287 -405 81 -57 127
-80 232 -112 l88 -27 705 -6 c665 -5 708 -6 750 -24 85 -36 145 -83 503 -389
237 -203 366 -307 381 -307 42 0 46 16 46 171 0 80 5 170 10 200 40 208 218
357 430 359 85 1 183 25 260 66 85 44 186 147 224 227 58 124 57 91 53 1245
-2 933 -5 1063 -19 1107 -90 285 -258 452 -543 543 -45 15 -194 17 -1405 18
-745 1 -1364 0 -1375 -2z m761 -525 c200 -28 401 -104 496 -188 25 -23 57 -63
69 -89 18 -36 24 -42 27 -27 3 11 17 39 33 61 150 219 764 330 1058 193 76
-35 136 -93 150 -146 16 -55 15 -1649 0 -1709 -7 -28 -23 -54 -41 -69 -37 -32
-103 -33 -273 -5 -146 24 -326 26 -409 5 -60 -16 -144 -50 -361 -147 -166 -73
-171 -73 -400 30 -265 118 -288 125 -435 130 -94 3 -156 -1 -253 -17 -179 -29
-247 -28 -286 5 -17 14 -35 42 -41 62 -6 24 -10 332 -10 867 l0 831 23 44 c40
80 156 146 297 169 79 13 266 13 356 0z" fill="#9E2A2B" />
</g>
</svg>
