<svg version="1.0" xmlns="http://www.w3.org/2000/svg"
 width="400.000000pt" height="400.000000pt" viewBox="0 0 400.000000 400.000000"
 preserveAspectRatio="xMidYMid meet">
<metadata>
Created by potrace and Antigravity multi-layer color tracer
</metadata>
<g transform="translate(0.000000,400.000000) scale(0.100000,-0.100000)" stroke="none">
  <path d="M655 3994 c-11 -2 -44 -9 -73 -15 -222 -45 -436 -226 -525 -445 -54
-133 -52 -95 -52 -1149 l0 -980 23 -75 c54 -171 152 -309 287 -405 81 -57 127
-80 232 -112 l88 -27 705 -6 c665 -5 708 -6 750 -24 85 -36 145 -83 503 -389
237 -203 366 -307 381 -307 42 0 46 16 46 171 0 80 5 170 10 200 40 208 218
357 430 359 85 1 183 25 260 66 85 44 186 147 224 227 58 124 57 91 53 1245
-2 933 -5 1063 -19 1107 -90 285 -258 452 -543 543 -45 15 -194 17 -1405 18
-745 1 -1364 0 -1375 -2z m772 -530 c170 -25 350 -85 434 -145 27 -19 42 -21
139 -20 105 2 112 3 166 36 73 44 200 89 326 117 82 17 137 22 268 22 183 1
247 -11 357 -65 68 -33 105 -73 131 -142 12 -31 33 -57 68 -85 58 -46 122
-136 156 -220 23 -57 23 -57 26 -633 2 -490 1 -587 -12 -643 -43 -184 -176
-321 -361 -372 -50 -14 -207 -15 -1675 -14 -545 0 -564 1 -661 43 -87 38 -188
137 -235 229 -53 105 -55 131 -52 757 3 576 3 576 26 633 34 84 98 174 155
220 37 29 56 54 73 94 27 67 38 80 93 115 125 80 346 108 578 73z" fill="#335C67" />
  <path d="M1075 3469 c-154 -23 -264 -83 -307 -168 l-28 -55 0 -818 c0 -573 3
-833 11 -864 7 -28 23 -54 41 -69 37 -32 103 -33 273 -5 74 12 168 20 244 20
147 0 206 -17 452 -128 189 -86 225 -96 279 -82 22 6 111 43 197 81 87 39 198
85 248 101 81 27 102 31 210 30 76 0 165 -8 245 -22 163 -28 244 -25 276 13
13 15 28 44 33 65 7 24 11 320 11 858 l0 822 -28 53 c-64 123 -258 188 -523
176 -324 -16 -613 -133 -680 -276 -13 -28 -26 -50 -29 -50 -3 0 -16 22 -29 50
-84 181 -546 319 -896 268z m993 -540 c13 -11 54 -83 92 -159 41 -81 78 -144
91 -150 11 -7 91 -22 177 -35 150 -22 158 -25 184 -54 55 -62 37 -101 -105
-236 -68 -65 -108 -110 -113 -129 -4 -18 3 -86 19 -179 23 -133 25 -153 12
-182 -13 -33 -58 -65 -91 -65 -9 0 -82 34 -162 75 -80 41 -155 75 -167 75 -12
0 -87 -34 -167 -75 -80 -41 -153 -75 -162 -75 -33 0 -78 32 -91 65 -13 29 -11
49 12 182 16 93 23 161 19 179 -5 19 -45 64 -113 129 -142 135 -160 174 -105
236 26 29 34 32 184 54 86 13 166 28 177 35 13 6 50 69 91 150 38 76 79 148
92 159 15 14 35 21 63 21 28 0 48 -7 63 -21z" fill="#FFEAB8" />
  <path d="M1942 2929 c-13 -11 -54 -83 -92 -159 -41 -81 -78 -144 -91 -150 -11
-7 -91 -22 -177 -35 -150 -22 -158 -25 -184 -54 -55 -62 -37 -101 105 -236 68
-65 108 -110 113 -129 4 -18 -3 -86 -19 -179 -23 -133 -25 -153 -12 -182 13
-33 58 -65 91 -65 9 0 82 34 162 75 80 41 155 75 167 75 12 0 87 -34 167 -75
80 -41 153 -75 162 -75 33 0 78 32 91 65 13 29 11 49 -12 182 -16 93 -23 161
-19 179 5 19 45 64 113 129 142 135 160 174 105 236 -26 29 -34 32 -184 54
-86 13 -166 28 -177 35 -13 6 -50 69 -91 150 -38 76 -79 148 -92 159 -15 14
-35 21 -63 21 -28 0 -48 -7 -63 -21z" fill="#FAA307" />
  <path d="M2673 1513 c9 -2 25 -2 35 0 9 3 1 5 -18 5 -19 0 -27 -2 -17 -5z" fill="#FAA307" />
  <path d="M1935 3259 c20 -23 43 -57 51 -76 l15 -35 25 51 c14 28 39 62 56 76
l30 25 -107 0 -107 0 37 -41z" fill="#9E2A2B" />
  <path d="M684 3182 c-58 -46 -122 -136 -156 -220 -23 -57 -23 -57 -26 -633 -3
-626 -1 -652 52 -757 48 -95 146 -189 241 -231 90 -40 131 -42 644 -39 l494 3
-74 32 c-41 17 -131 56 -200 87 -69 30 -153 62 -186 70 -85 22 -251 20 -403
-4 -210 -35 -264 -28 -307 37 -17 25 -18 86 -23 861 l-5 835 -51 -41z" fill="#9E2A2B" />
  <path d="M3260 2415 c0 -563 -3 -820 -11 -851 -7 -28 -23 -54 -41 -69 -37 -32
-103 -33 -273 -5 -74 12 -168 20 -244 20 -146 0 -205 -17 -452 -128 -85 -38
-161 -72 -169 -75 -8 -3 215 -6 495 -6 529 -1 549 1 646 42 87 38 188 137 235
229 52 102 54 130 54 719 0 322 -4 568 -10 600 -21 112 -127 275 -207 318
l-23 12 0 -806z" fill="#9E2A2B" />
</g>
</svg>